<svg width="69" height="63" viewBox="0 0 69 63" fill="none" xmlns="http://www.w3.org/2000/svg">
<circle cx="41.2501" cy="27.6629" r="27.5936" fill="#F3F5F5"/>
<path d="M48.7803 7.80273C48.5611 7.80273 48.3447 7.81401 48.1309 7.83485C48.0485 7.81466 47.963 7.80273 47.8744 7.80273H15.4795C11.6886 7.80273 8.60449 10.8868 8.60449 14.6777V18.9746C8.60449 19.5679 9.08553 20.0488 9.67871 20.0488C10.2719 20.0488 10.7529 19.5679 10.7529 18.9746V14.6777C10.7529 12.0715 12.8732 9.95117 15.4795 9.95117H43.8867C42.791 11.1386 42.1201 12.7236 42.1201 14.4629C42.1201 14.4992 42.1221 14.535 42.1256 14.5703C42.1221 14.6057 42.1201 14.6414 42.1201 14.6777V22.0182C42.1201 22.6115 42.6012 23.0924 43.1943 23.0924C43.7875 23.0924 44.2686 22.6115 44.2686 22.0182V15.5371H54.3662C54.9594 15.5371 55.4404 15.0562 55.4404 14.4629C55.4404 10.7905 52.4527 7.80273 48.7803 7.80273ZM44.3989 13.3887C44.8821 11.418 46.6627 9.95117 48.7804 9.95117C50.8981 9.95117 52.6785 11.418 53.1618 13.3887H44.3989Z" fill="black" stroke="white" stroke-width="0.3"/>
<path d="M36.7346 13.6025H29.9088C29.3156 13.6025 28.8346 14.0835 28.8346 14.6768C28.8346 15.27 29.3156 15.751 29.9088 15.751H34.2778L22.0928 27.9359L14.9501 20.7933C14.5305 20.3738 13.8505 20.3739 13.4308 20.7933L3.78971 30.4345C3.37023 30.854 3.37023 31.5341 3.78971 31.9537C3.9995 32.1634 4.27429 32.2683 4.54929 32.2683C4.82429 32.2683 5.09908 32.1634 5.30887 31.9536L14.1905 23.072L21.3332 30.2147C21.7528 30.6342 22.4328 30.6342 22.8525 30.2147L35.6604 17.4068V21.5026C35.6604 22.0958 36.1414 22.5768 36.7346 22.5768C37.3278 22.5768 37.8088 22.0958 37.8088 21.5026V14.6768C37.8088 14.0835 37.3278 13.6025 36.7346 13.6025Z" fill="#CB950B" stroke="white" stroke-width="0.3"/>
<path d="M2.27401 33.469C2.07432 33.2692 1.79717 33.1543 1.51465 33.1543C1.23213 33.1543 0.95498 33.2692 0.755176 33.469C0.555264 33.6688 0.44043 33.946 0.44043 34.2285C0.44043 34.511 0.555264 34.7882 0.755176 34.988C0.955088 35.1878 1.23213 35.3027 1.51465 35.3027C1.79717 35.3027 2.07432 35.1878 2.27401 34.988C2.47393 34.7882 2.58887 34.511 2.58887 34.2285C2.58887 33.946 2.47393 33.6688 2.27401 33.469Z" fill="black" stroke="white" stroke-width="0.3"/>
<path d="M49.4259 41.535C49.426 40.9417 48.945 40.4607 48.3518 40.4607H40.1877V32.2967C40.1877 31.7034 39.7067 31.2225 39.1135 31.2225C33.4271 31.2225 28.801 35.8486 28.801 41.535C28.801 47.2213 33.4271 51.8475 39.1135 51.8475C40.159 51.8475 41.1685 51.6905 42.1201 51.3999V56.1424C42.1201 58.6302 40.0962 60.6541 37.6084 60.6541C35.1206 60.6541 33.0967 58.6302 33.0967 56.1424C33.0967 56.109 33.0946 56.076 33.0917 56.0435C33.0958 56.0053 33.0982 55.9668 33.0982 55.9276C33.0982 55.3343 32.6171 54.8533 32.024 54.8533H10.7529V31.8682C10.7529 31.2749 10.2719 30.7939 9.67871 30.7939C9.08553 30.7939 8.60449 31.2749 8.60449 31.8682V54.8533H3.87793C3.28475 54.8533 2.80371 55.3343 2.80371 55.9276C2.80371 59.7185 5.88779 62.8026 9.67871 62.8026H37.6084C41.2808 62.8026 44.2686 59.8148 44.2686 56.1424V50.5546C44.2686 50.5249 44.2665 50.4957 44.264 50.4664C47.3472 48.6815 49.4259 45.3465 49.4259 41.535ZM9.67871 60.6541C7.44187 60.6541 5.56295 59.0922 5.07525 57.0018H31.0055C31.1867 58.4012 31.8026 59.6656 32.7147 60.6541H9.67871ZM39.1135 49.699C34.6119 49.699 30.9494 46.0367 30.9494 41.535C30.9494 37.3973 34.0434 33.9687 38.0393 33.4413V41.535C38.0393 42.1282 38.5203 42.6092 39.1135 42.6092H47.2072C46.6796 46.6051 43.2511 49.699 39.1135 49.699Z" fill="black" stroke="white" stroke-width="0.3"/>
<path d="M42.7646 25.208C42.1715 25.208 41.6904 25.6889 41.6904 26.2822V37.8838C41.6904 38.4771 42.1715 38.958 42.7646 38.958H54.3662C54.9594 38.958 55.4404 38.4771 55.4404 37.8838C55.4404 30.8943 49.7541 25.208 42.7646 25.208ZM43.8389 36.8096V27.4108C48.788 27.9145 52.7339 31.8603 53.2376 36.8096H43.8389Z" fill="#CB950B" stroke="white" stroke-width="0.3"/>
<path d="M23.1064 42.6074H13.8682C13.275 42.6074 12.7939 43.0883 12.7939 43.6816C12.7939 44.2749 13.275 44.7559 13.8682 44.7559H23.1064C23.6996 44.7559 24.1807 44.2749 24.1807 43.6816C24.1807 43.0883 23.6996 42.6074 23.1064 42.6074Z" fill="black" stroke="white" stroke-width="0.3"/>
<path d="M28.109 48.0784C27.9093 47.8786 27.6321 47.7637 27.3496 47.7637C27.0671 47.7637 26.7899 47.8786 26.5901 48.0784C26.3903 48.2782 26.2754 48.5554 26.2754 48.8379C26.2754 49.1204 26.3902 49.3976 26.5901 49.5974C26.79 49.7972 27.0671 49.9121 27.3496 49.9121C27.6321 49.9121 27.9093 49.7972 28.109 49.5974C28.3088 49.3976 28.4238 49.1204 28.4238 48.8379C28.4238 48.5554 28.3089 48.2782 28.109 48.0784Z" fill="black" stroke="white" stroke-width="0.3"/>
<path d="M23.1064 47.7637H13.8682C13.275 47.7637 12.7939 48.2446 12.7939 48.8379C12.7939 49.4312 13.275 49.9121 13.8682 49.9121H23.1064C23.6996 49.9121 24.1807 49.4312 24.1807 48.8379C24.1807 48.2446 23.6996 47.7637 23.1064 47.7637Z" fill="black" stroke="white" stroke-width="0.3"/>
<path d="M17.5655 37.4512H13.8682C13.275 37.4512 12.7939 37.9321 12.7939 38.5254C12.7939 39.1187 13.275 39.5996 13.8682 39.5996H17.5655C18.1587 39.5996 18.6397 39.1187 18.6397 38.5254C18.6397 37.9321 18.1587 37.4512 17.5655 37.4512Z" fill="black" stroke="white" stroke-width="0.3"/>
</svg>
