<svg width="70" height="68" viewBox="0 0 70 68" fill="none" xmlns="http://www.w3.org/2000/svg">
<circle cx="42.2501" cy="27.6629" r="27.5936" fill="#F3F5F5"/>
<path d="M62.3305 60.9319L61.4498 60.0511C61.0967 59.6978 60.5241 59.6979 60.171 60.051C59.8178 60.4041 59.8178 60.9767 60.1709 61.3298L60.9237 62.0826L57.0873 65.9191L50.565 59.397L54.4015 55.5604L57.4443 58.6032C57.7976 58.9563 58.37 58.9563 58.7232 58.6032C59.0764 58.25 59.0764 57.6775 58.7232 57.3243L55.0426 53.6438C55.042 53.6432 55.0415 53.6426 55.041 53.642L52.4833 51.0843C52.4826 51.0836 52.4818 51.0831 52.4811 51.0824L50.2239 48.8251C49.9164 48.5175 49.5077 48.3481 49.0727 48.3481C48.6378 48.3481 48.2291 48.5175 47.9218 48.8249L47.7938 48.9529L44.558 45.7162C46.8708 42.8266 48.5413 39.4022 49.352 35.6607H55.7237C56.2232 35.6607 56.628 35.2559 56.628 34.7564C56.628 34.2568 56.2232 33.8521 55.7237 33.8521H49.6726C49.7523 33.2769 49.8119 32.6955 49.8506 32.1085H60.0341C60.5336 32.1085 60.9384 31.7037 60.9384 31.2042C60.9384 30.7046 60.5336 30.2999 60.0341 30.2999H49.904C49.8996 29.7147 49.8754 29.1333 49.831 28.5561H55.7238C56.2234 28.5561 56.6281 28.1514 56.6281 27.6518C56.6281 27.1523 56.2234 26.7475 55.7238 26.7475H49.6245C48.9927 22.5903 47.3031 18.7016 44.6443 15.3426C44.3343 14.9511 43.7657 14.8851 43.374 15.1948C42.9825 15.5048 42.9163 16.0735 43.2262 16.4652C46.4129 20.491 48.0973 25.3391 48.0973 30.4854C48.0973 42.9513 37.9557 53.0929 25.4898 53.0929C13.024 53.0929 2.88233 42.9513 2.88233 30.4854C2.88233 18.0196 13.024 7.87794 25.4898 7.87794C31.1252 7.87794 36.5236 9.96361 40.6904 13.7507C41.0598 14.0869 41.632 14.0594 41.9677 13.6898C42.3036 13.3203 42.2764 12.7483 41.9067 12.4123C37.4064 8.32201 31.5761 6.06934 25.4898 6.06934C12.0267 6.06934 1.07373 17.0223 1.07373 30.4854C1.07373 42.3718 9.61201 52.2997 20.877 54.4625V60.5634C20.877 61.0629 21.2818 61.4677 21.7813 61.4677C22.2809 61.4677 22.6856 61.0629 22.6856 60.5634V54.7396C23.2611 54.8057 23.8425 54.852 24.4294 54.8772V64.816C24.4294 65.3155 24.8341 65.7203 25.3337 65.7203C25.8332 65.7203 26.238 65.3155 26.238 64.816V54.889C26.8244 54.8713 27.4061 54.8339 27.9817 54.7753V60.5634C27.9817 61.0629 28.3865 61.4677 28.886 61.4677C29.3855 61.4677 29.7903 61.0629 29.7903 60.5634V54.5222C33.8733 53.7937 37.6071 52.0459 40.7208 49.5536L43.9574 52.7896L43.8296 52.9174C43.522 53.2248 43.3526 53.6336 43.3526 54.0685C43.3526 54.5034 43.522 54.9121 43.8294 55.2195L46.0875 57.4774C46.088 57.4779 46.0883 57.4784 46.0888 57.4789L48.6465 60.0366C48.647 60.0371 48.6477 60.0376 48.6482 60.0382L55.936 67.3259C56.2435 67.6336 56.6522 67.8029 57.0871 67.8029C57.522 67.8029 57.9307 67.6336 58.2382 67.3261L62.3305 63.2339C62.638 62.9263 62.8073 62.5176 62.8073 62.0827C62.8073 61.6478 62.638 61.2391 62.3305 60.9319ZM43.3734 47.0893L46.5148 50.2315L45.236 51.5103L42.0938 48.3689C42.5359 47.9583 42.9627 47.5315 43.3734 47.0893ZM49.286 58.1182L48.0071 56.8394L51.8436 53.0028L53.1224 54.2818L49.286 58.1182ZM49.0729 50.2318L50.5648 51.7238L46.7283 55.5603L45.2363 54.0684L49.0729 50.2318Z" fill="black" stroke="white" stroke-width="0.2"/>
<path d="M12.8966 47.0392C16.5185 49.7616 20.8695 51.2296 25.4897 51.2843C36.9583 51.2843 46.2886 41.954 46.2886 30.4854C46.2886 19.0168 36.9583 9.68652 25.4897 9.68652C19.9551 9.68652 14.7493 11.8529 10.8318 15.7864C6.93074 19.7033 4.74993 24.9201 4.69085 30.4758C4.63659 35.5904 6.49499 40.5064 9.92361 44.3182C10.2576 44.6894 10.8294 44.7198 11.2007 44.3858C11.5721 44.0518 11.6024 43.48 11.2684 43.1087C8.14359 39.6348 6.4499 35.1551 6.49945 30.4951C6.55335 25.4137 8.54703 20.6434 12.1132 17.0628C15.6889 13.4724 20.4394 11.4951 25.4897 11.4951C35.9611 11.4951 44.48 20.0141 44.48 30.4854C44.48 40.9567 35.9611 49.4757 25.5005 49.4758C21.2781 49.4257 17.2956 48.0831 13.9832 45.5935C13.5842 45.2931 13.017 45.3738 12.7171 45.773C12.4168 46.1722 12.4972 46.7392 12.8966 47.0392Z" fill="black" stroke="white" stroke-width="0.2"/>
<path d="M28.9261 14.3281H22.6563C21.8917 14.3281 21.2697 14.9502 21.2697 15.7147V18.9099H15.4219C14.6573 18.9099 14.0353 19.5319 14.0353 20.2965V30.0027H12.825C12.3254 30.0027 11.9207 30.4074 11.9207 30.907C11.9207 31.4065 12.3254 31.8113 12.825 31.8113H38.7574C39.2569 31.8113 39.6617 31.4065 39.6617 30.907C39.6617 30.4074 39.2569 30.0027 38.7574 30.0027H37.547V24.8783C37.547 24.1137 36.925 23.4917 36.1605 23.4917H30.3127V15.7147C30.3127 14.9502 29.6906 14.3281 28.9261 14.3281ZM15.8439 20.7185H21.2697V30.0027H15.8439V20.7185ZM23.0783 16.1367H28.5041V30.0027H23.0783V16.1367ZM35.7384 25.3003V30.0027H30.3127V25.3003H35.7384Z" fill="#CB950B" stroke="white" stroke-width="0.2"/>
<path d="M35.9195 39.4748H31.6622L29.7282 34.5309C29.5914 34.1816 29.2565 33.9556 28.878 33.9561C28.5028 33.9594 28.1685 34.1942 28.0381 34.546L25.3951 41.673L23.5479 36.4373C23.4298 36.1021 23.1262 35.8673 22.7719 35.8371C22.4182 35.8065 22.0789 35.9871 21.9055 36.2972L20.1316 39.4747H15.8855C15.386 39.4747 14.9812 39.8795 14.9812 40.379C14.9812 40.8785 15.386 41.2833 15.8855 41.2833H20.6624C20.9901 41.2833 21.2923 41.1059 21.452 40.8198L22.5086 38.9274L24.5211 44.6317C24.6478 44.9909 24.9858 45.2321 25.3667 45.2352H25.374C25.7518 45.2352 26.0902 45.0001 26.2218 44.6452L28.9085 37.4002L30.2026 40.7085C30.3383 41.0552 30.6724 41.2834 31.0447 41.2834H35.9195C36.419 41.2834 36.8238 40.8787 36.8238 40.3791C36.8238 39.8796 36.419 39.4748 35.9195 39.4748Z" fill="black" stroke="white" stroke-width="0.2"/>
</svg>
