<svg width="62" height="68" viewBox="0 0 62 68" fill="none" xmlns="http://www.w3.org/2000/svg">
<circle cx="34.2503" cy="27.6629" r="27.5936" fill="#F3F5F5"/>
<path d="M42.0025 32.8417V21.5086C42.0025 21.1842 41.8527 20.8845 41.6407 20.6474L28.9347 7.30495C28.6976 7.05549 28.3604 6.91797 28.0237 6.91797H7.87868C4.15963 6.91797 1.18896 9.95077 1.18896 13.6703V51.7631C1.18896 55.4826 4.15963 58.4656 7.87868 58.4656H23.7801C26.7878 63.458 32.2549 66.8029 38.4827 66.8029C47.9434 66.8029 55.6693 59.1144 55.6693 49.6413C55.6821 41.3662 49.7408 34.4517 42.0025 32.8417ZM29.2719 11.299L37.7964 20.2727H32.2672C30.6197 20.2727 29.2719 18.9126 29.2719 17.2651V11.299ZM7.87868 55.9692C5.54491 55.9692 3.68539 54.0969 3.68539 51.7631V13.6703C3.68539 11.3237 5.54491 9.41439 7.87868 9.41439H26.7755V17.2651C26.7755 20.2979 29.2344 22.7692 32.2672 22.7692H39.5061V32.5168C39.1319 32.5045 38.8322 32.467 38.5078 32.467C34.1519 32.467 30.1454 34.1397 27.125 36.7608H11.2738C10.5871 36.7608 10.0256 37.3223 10.0256 38.0086C10.0256 38.6953 10.5871 39.2568 11.2738 39.2568H24.8035C23.9172 40.505 23.1807 41.7532 22.6068 43.1261H11.2738C10.5871 43.1261 10.0256 43.6877 10.0256 44.3744C10.0256 45.0606 10.5871 45.6226 11.2738 45.6226H21.7954C21.4834 46.8708 21.3212 48.2561 21.3212 49.6413C21.3212 51.8878 21.7579 54.1097 22.5442 55.982H7.87868V55.9692ZM38.4955 64.3192C30.4077 64.3192 23.8299 57.7415 23.8299 49.6537C23.8299 41.5659 30.3949 34.9881 38.4955 34.9881C46.5956 34.9881 53.1606 41.5659 53.1606 49.6537C53.1606 57.7415 46.5833 64.3192 38.4955 64.3192Z" fill="black" stroke="white" stroke-width="0.5"/>
<path d="M11.2736 33.0042H23.917C24.6037 33.0042 25.1652 32.4423 25.1652 31.756C25.1652 31.0693 24.6037 30.5078 23.917 30.5078H11.2736C10.5869 30.5078 10.0254 31.0693 10.0254 31.756C10.0254 32.4423 10.5869 33.0042 11.2736 33.0042Z" fill="#CB950B" stroke="white" stroke-width="0.5"/>
<path d="M43.5753 48.4805H39.7562V44.5988C39.7562 43.9126 39.1942 43.3506 38.508 43.3506C37.8213 43.3506 37.2598 43.9126 37.2598 44.5988V48.4805H33.3781C32.6914 48.4805 32.1299 49.0425 32.1299 49.7287C32.1299 50.4154 32.6914 50.9769 33.3781 50.9769H37.2598V54.796C37.2598 55.4827 37.8213 56.0442 38.508 56.0442C39.1942 56.0442 39.7562 55.4827 39.7562 54.796V50.9769H43.5753C44.262 50.9769 44.8235 50.4154 44.8235 49.7287C44.8235 49.0425 44.262 48.4805 43.5753 48.4805Z" fill="#CB950B" stroke="white" stroke-width="0.5"/>
</svg>
