<svg width="68" height="67" viewBox="0 0 68 67" fill="none" xmlns="http://www.w3.org/2000/svg">
<circle cx="40.2501" cy="27.6629" r="27.5936" fill="#F3F5F5"/>
<path d="M56.4404 37.3213C56.4404 29.7038 53.5279 22.5422 48.2394 17.1557C42.9508 11.7692 35.9194 8.80273 28.4404 8.80273C20.9615 8.80273 13.9301 11.7692 8.64148 17.1557C3.35298 22.5422 0.44043 29.7038 0.44043 37.3213C0.44043 44.9387 3.35298 52.1003 8.64148 57.4869C13.9301 62.8733 20.9615 65.8398 28.4404 65.8398C31.2939 65.8398 34.1073 65.4043 36.8026 64.5455C36.8049 64.5449 36.8071 64.5442 36.8094 64.5434C37.8442 64.2136 38.8666 63.8199 39.8481 63.3734C39.9701 63.3179 40.0809 63.2401 40.1754 63.144L53.7937 49.2735C53.8882 49.1772 53.9646 49.064 54.0191 48.9395C54.3645 48.1511 54.6768 47.3405 54.9472 46.5304C54.9475 46.5297 54.9477 46.5291 54.948 46.5284C55.9383 43.5724 56.4404 40.4747 56.4404 37.3213ZM2.62793 37.3213C2.62793 22.8246 14.2074 11.0307 28.4404 11.0307C42.6735 11.0307 54.2529 22.8246 54.2529 37.3213C54.2529 39.833 53.9077 42.3055 53.2256 44.6879C51.9128 44.2165 50.5464 43.947 49.1634 43.8843C49.2486 43.4891 49.3355 43.0665 49.3832 42.8797C49.5353 42.2843 49.1845 41.676 48.5998 41.5213C48.0151 41.3663 47.418 41.7237 47.2661 42.3192C47.1232 42.8791 46.9548 43.4358 46.7631 43.9829C46.5379 44.0116 46.313 44.0458 46.0881 44.0855C43.2044 44.5949 40.5829 45.9821 38.5072 48.0968C36.475 50.1661 35.1238 52.7753 34.5997 55.6423C34.569 55.8099 34.5414 55.9777 34.5165 56.1457C32.5629 56.8 30.523 57.1312 28.4403 57.1312C17.7157 57.1312 8.9906 48.2445 8.9906 37.3213C8.9906 26.398 17.7158 17.5114 28.4404 17.5114C37.3099 17.5114 45.0536 23.6112 47.2717 32.3451C47.4229 32.9407 48.0195 33.299 48.6045 33.1446C49.1893 32.9906 49.5407 32.3829 49.3895 31.7871C46.9217 22.07 38.3071 15.2833 28.4404 15.2833C16.5097 15.2833 6.80321 25.1696 6.80321 37.3213C6.80321 49.4729 16.5097 59.3592 28.4404 59.3592C30.4596 59.3592 32.4432 59.0789 34.3595 58.5244C34.3809 59.9557 34.6115 61.3755 35.0468 62.743C32.9021 63.3198 30.6851 63.6118 28.4404 63.6118C14.2074 63.6118 2.62793 51.8179 2.62793 37.3213ZM52.1023 47.8454L38.7731 61.4214C38.238 61.6596 37.6905 61.8808 37.1357 62.0828C35.7343 57.7309 36.8294 52.9558 40.0542 49.6722C42.3399 47.3435 45.4265 46.1084 48.5502 46.1084C49.8881 46.1084 51.2334 46.3352 52.5246 46.7998C52.3913 47.1509 52.2503 47.5003 52.1023 47.8454Z" fill="black" stroke="white" stroke-width="0.4"/>
<path d="M47.8901 37.3306C47.8901 37.8026 48.1935 38.2344 48.6327 38.3859C49.0667 38.5357 49.5585 38.3867 49.8425 38.0208C50.115 37.6697 50.1542 37.1666 49.9379 36.7765C49.7087 36.3633 49.2314 36.1411 48.7743 36.2322C48.2663 36.3337 47.8901 36.8043 47.8901 37.3306Z" fill="black" stroke="white" stroke-width="0.4"/>
<path d="M36.3105 31.664L31.8739 30.4332L29.3564 26.5034C29.1545 26.1882 28.81 25.998 28.4404 25.998C28.0708 25.998 27.7263 26.1881 27.5244 26.5034L25.0069 30.4332L20.5703 31.664C20.2146 31.7627 19.9317 32.0372 19.8176 32.3942C19.7035 32.7513 19.7738 33.1428 20.0044 33.4357L22.8866 37.0963L22.6616 41.7887C22.6436 42.1644 22.8128 42.5239 23.1116 42.7447C23.4104 42.9656 23.7985 43.0179 24.1435 42.884L28.4404 41.2166L32.7373 42.8841C32.8635 42.933 32.9954 42.9571 33.1267 42.9571C33.3543 42.9571 33.5797 42.8848 33.7691 42.7447C34.0679 42.5239 34.2371 42.1644 34.2192 41.7887L33.9941 37.0963L36.8764 33.4357C37.107 33.1428 37.1773 32.7513 37.0632 32.3942C36.949 32.0372 36.6661 31.7627 36.3105 31.664ZM32.0281 36.0321C31.861 36.2443 31.7759 36.5116 31.7889 36.7834L31.9526 40.1955L28.8299 38.9836C28.7045 38.9349 28.5725 38.9106 28.4405 38.9106C28.3085 38.9106 28.1765 38.9349 28.051 38.9836L24.9282 40.1955L25.092 36.7834C25.105 36.5117 25.0199 36.2444 24.8528 36.0321L22.7546 33.3673L25.9833 32.4716C26.2418 32.3999 26.4655 32.234 26.6118 32.0055L28.4404 29.1508L30.269 32.0054C30.4154 32.2339 30.639 32.3998 30.8976 32.4715L34.1262 33.3672L32.0281 36.0321Z" fill="#CB950B" stroke="white" stroke-width="0.4"/>
<path d="M35.3368 46.165H21.5439C20.9399 46.165 20.4502 46.6638 20.4502 47.279C20.4502 47.8943 20.9399 48.393 21.5439 48.393H35.3368C35.9409 48.393 36.4305 47.8943 36.4305 47.279C36.4305 46.6638 35.9409 46.165 35.3368 46.165Z" fill="#CB950B" stroke="white" stroke-width="0.4"/>
</svg>
