<svg width="71" height="65" viewBox="0 0 71 65" fill="none" xmlns="http://www.w3.org/2000/svg">
<circle cx="43.2503" cy="27.6629" r="27.5936" fill="#F3F5F5"/>
<path d="M32.4399 15.5462C33.1302 15.5462 33.6899 14.9865 33.6899 14.2962V7.92871C33.6899 7.23846 33.1303 6.67871 32.4399 6.67871C31.7496 6.67871 31.1899 7.23834 31.1899 7.92871V14.2962C31.1901 14.9865 31.7497 15.5462 32.4399 15.5462Z" fill="#CB950B" stroke="white" stroke-width="0.7"/>
<path d="M23.0422 17.5995C23.2798 17.9766 23.6857 18.1831 24.1008 18.1831C24.3285 18.1831 24.5592 18.1209 24.766 17.9905C25.35 17.6225 25.525 16.8506 25.157 16.2665L21.8265 10.9821C21.4584 10.3981 20.6865 10.223 20.1027 10.5911C19.5187 10.9591 19.3437 11.731 19.7117 12.3151L23.0422 17.5995Z" fill="#CB950B" stroke="white" stroke-width="0.7"/>
<path d="M40.1179 17.9908C40.3247 18.1209 40.5551 18.183 40.7826 18.183C41.1979 18.183 41.604 17.9763 41.8416 17.5989L45.1686 12.3145C45.5363 11.7303 45.361 10.9586 44.7767 10.5906C44.1922 10.223 43.4209 10.3985 43.053 10.9825L39.726 16.2669C39.3582 16.8513 39.5337 17.6229 40.1179 17.9908Z" fill="#CB950B" stroke="white" stroke-width="0.7"/>
<path d="M64.0375 37.1072L61.8656 33.2704C61.5254 32.6694 60.7626 32.4581 60.1623 32.7984C59.5614 33.1385 59.3501 33.9011 59.6903 34.5017L61.8611 38.337C61.9699 38.5297 61.9416 38.7156 61.9151 38.8092C61.8896 38.8994 61.8194 39.0657 61.6356 39.1672L58.2884 41.0214C57.991 41.1856 57.6029 41.0819 57.4408 40.7959L56.5904 39.2916C56.5869 39.2849 56.5829 39.2786 56.5793 39.272L47.788 23.7227C47.6794 23.5314 47.7069 23.3479 47.7329 23.2555C47.758 23.1661 47.8278 23.001 48.0115 22.8994L51.3628 21.0449C51.6639 20.8781 52.0425 20.9794 52.2071 21.2711L54.1664 24.7327C54.5065 25.3336 55.2694 25.5447 55.8699 25.2049C56.4708 24.8649 56.682 24.1021 56.342 23.5014L54.3836 20.0412C53.5484 18.5605 51.6506 18.0294 50.1529 18.8572L46.8018 20.7117C46.0766 21.1125 45.5527 21.7749 45.3268 22.5772C45.1135 23.3337 45.1898 24.1235 45.5389 24.8166L43.6929 25.3516C42.9065 25.5791 42.4292 25.7025 42.1644 25.7025C42.1632 25.7025 42.1623 25.7025 42.1613 25.7025C41.9789 25.7019 41.78 25.6322 41.2124 25.4172C40.9549 25.3197 40.6343 25.1982 40.2401 25.0607L36.9695 23.9174C35.1606 23.2856 34.3447 23.3196 33.1628 23.4275L27.5857 23.9266C25.0434 24.1519 23.4225 24.7254 22.5277 25.72L19.3495 24.7991C19.6915 24.109 19.7649 23.3269 19.5536 22.5772C19.3276 21.7754 18.8041 21.1131 18.0797 20.7124L14.7305 18.857C13.2315 18.0284 11.3326 18.5597 10.4972 20.0401L0.846739 37.1055C0.433614 37.8329 0.331364 38.6789 0.559114 39.4877C0.785364 40.291 1.30911 40.954 2.03286 41.3542L5.38212 43.2094C5.86099 43.4741 6.38124 43.5999 6.89462 43.5999C7.98524 43.5999 9.04549 43.0325 9.61537 42.0264L9.96924 41.4004C10.935 41.8255 11.7459 42.4431 12.2985 43.1744C11.7587 43.8051 11.4187 44.5835 11.3234 45.4301C11.1974 46.5497 11.5136 47.6482 12.2139 48.5239C12.9081 49.392 13.9009 49.9397 15.011 50.0687C14.8935 51.1789 15.211 52.2666 15.9059 53.1325C16.6241 54.0305 17.6392 54.5544 18.7011 54.678C18.5841 55.7865 18.9005 56.8732 19.5932 57.7396C20.2871 58.6096 21.2801 59.1585 22.3914 59.2875C22.2737 60.3985 22.5912 61.4869 23.2861 62.3529C24.1144 63.3884 25.3371 63.9275 26.5715 63.9274C27.493 63.9274 28.421 63.6269 29.1957 63.0081L31.813 60.9139C32.0209 60.748 32.2097 60.5646 32.3796 60.3671L33.8746 61.5614C34.6477 62.1784 35.5736 62.4781 36.4939 62.478C37.7289 62.4779 38.9536 61.9381 39.783 60.9016C40.2201 60.3551 40.4969 59.7314 40.6219 59.0875C41.059 59.2387 41.5205 59.3169 41.991 59.3167C42.1488 59.3167 42.3075 59.308 42.4668 59.2904C43.5868 59.166 44.5882 58.6152 45.2841 57.7425C45.9803 56.8752 46.2978 55.7876 46.1804 54.6776C47.2415 54.5537 48.2571 54.03 48.9775 53.1324C49.695 52.2352 49.983 51.1307 49.8703 50.0685C50.9798 49.9392 51.972 49.3916 52.6646 48.5255C53.3654 47.6522 53.683 46.5554 53.5589 45.4366C53.4646 44.5874 53.1244 43.8064 52.5836 43.1739C53.1346 42.4429 53.9439 41.8245 54.9103 41.3996L55.2649 42.0269C55.8344 43.0326 56.8941 43.5997 57.985 43.5997C58.4986 43.5996 59.0194 43.4739 59.4988 43.2089L62.8461 41.3546C63.5696 40.9546 64.0931 40.2926 64.3203 39.4907C64.5493 38.6826 64.4491 37.8366 64.0375 37.1072ZM7.43962 40.7952C7.27712 41.0822 6.88874 41.1857 6.59262 41.0219L3.24349 39.1669C3.06061 39.0656 2.99086 38.8999 2.96536 38.81C2.93924 38.7169 2.91136 38.532 3.02161 38.3382L12.6736 21.2695C12.7841 21.0736 12.9924 20.9639 13.2086 20.9639C13.3139 20.9639 13.4209 20.9897 13.5196 21.0444L16.8679 22.8991C16.8682 22.8994 16.8686 22.8996 16.869 22.8997C17.0522 23.0011 17.1219 23.1662 17.1471 23.2556C17.1731 23.348 17.2006 23.5315 17.0907 23.725L7.43962 40.7952ZM16.5614 47.2277C16.2089 47.5101 15.7637 47.6377 15.3089 47.5871C14.8537 47.5366 14.4481 47.3149 14.1664 46.9626C13.884 46.6095 13.7567 46.1645 13.8079 45.7097C13.8587 45.2569 14.0806 44.8532 14.4349 44.5714L19.1146 40.8306C19.8491 40.2442 20.9242 40.3649 21.5112 41.098C21.7935 41.4509 21.9209 41.8951 21.8699 42.3485C21.8191 42.8004 21.5971 43.2036 21.2449 43.4839C21.2371 43.49 21.2305 43.4969 21.223 43.5032L16.5625 47.2269C16.5621 47.2271 16.5617 47.2275 16.5614 47.2277ZM17.8569 51.5695C17.5747 51.2179 17.4472 50.7747 17.4976 50.3217C17.548 49.8684 17.7701 49.4629 18.1229 49.18L18.1232 49.1797C18.1235 49.1796 18.1237 49.1794 18.124 49.1792C18.1241 49.1792 18.1241 49.1791 18.1242 49.179L24.865 43.7935C25.5994 43.207 26.6747 43.3267 27.2616 44.0609C27.5435 44.4132 27.6709 44.857 27.6205 45.3102C27.57 45.764 27.3472 46.1695 26.9936 46.452L20.2546 51.8355C19.5194 52.4222 18.4444 52.3039 17.8569 51.5695ZM22.6891 56.8057C22.2341 56.7552 21.8289 56.5332 21.5467 56.1795C21.2649 55.8271 21.1375 55.3834 21.1879 54.9301C21.2384 54.4767 21.4607 54.0716 21.8139 53.7891C21.8141 53.7889 21.8145 53.7886 21.8147 53.7884L26.4795 50.0619C26.485 50.0576 26.491 50.054 26.4965 50.0496C27.229 49.4632 28.304 49.5826 28.8915 50.3149C29.1739 50.6679 29.3012 51.1129 29.2501 51.5676C29.1991 52.0205 28.9772 52.4241 28.6231 52.706L23.9435 56.4466C23.5899 56.729 23.1442 56.856 22.6891 56.8057ZM30.8789 57.8205C30.8282 58.2739 30.6061 58.6785 30.2524 58.961L27.635 61.0556C26.8996 61.6425 25.8246 61.5244 25.2374 60.7899C24.9552 60.4385 24.8276 59.995 24.878 59.5411C24.9284 59.0872 25.1502 58.6824 25.5024 58.4011C25.5027 58.4009 25.5032 58.4005 25.5036 58.4002L28.1204 56.3085C28.1217 56.3074 28.1232 56.3065 28.1246 56.3055C28.8592 55.7192 29.9344 55.8394 30.5214 56.5729C30.8025 56.9246 30.9296 57.3675 30.8789 57.8205ZM50.7136 46.9625C50.4319 47.3147 50.0261 47.5366 49.5711 47.5871C49.1165 47.6382 48.6711 47.5102 48.3186 47.2277C48.3185 47.2276 48.3183 47.2275 48.318 47.2274C48.3179 47.2272 48.3176 47.2271 48.3175 47.227L44.9728 44.5546C44.4333 44.1236 43.6468 44.2116 43.216 44.7509C42.7851 45.2901 42.873 46.0767 43.4123 46.5076L46.7559 49.1791C47.4894 49.7665 47.6103 50.8395 47.0265 51.5694C46.4375 52.3034 45.3624 52.4227 44.6284 51.8349L41.0003 48.9396C40.4608 48.5091 39.6742 48.5975 39.2436 49.137C38.8131 49.6765 38.9014 50.463 39.441 50.8936L43.0674 53.7875C43.4208 54.0705 43.6431 54.4762 43.6936 54.9301C43.744 55.3831 43.6165 55.8264 43.332 56.1807C43.0509 56.5332 42.6456 56.7551 42.1908 56.8057C41.7354 56.8559 41.2898 56.7287 40.9375 56.4476L39.1322 55.0039C39.1291 55.0014 39.1264 54.9987 39.1232 54.9962L37.598 53.7769L37.3129 53.5489C36.7735 53.1176 35.987 53.2052 35.556 53.7442C35.5021 53.8117 35.4562 53.883 35.4185 53.957C35.2375 54.3107 35.2405 54.7256 35.4104 55.0735C35.489 55.2346 35.6022 55.3817 35.7515 55.5011L37.5666 56.9527C38.2952 57.5411 38.4144 58.6105 37.831 59.3399C37.2439 60.0737 36.1686 60.1936 35.4345 59.608L33.3751 57.9627C33.4609 56.8929 33.1439 55.8495 32.4734 55.0111C32.0566 54.4902 31.5397 54.0957 30.9721 53.8311C31.3881 53.254 31.6522 52.576 31.7342 51.847C31.8602 50.7275 31.544 49.629 30.8425 48.7519C30.4256 48.2324 29.9094 47.8387 29.3429 47.5747C29.7596 46.9959 30.0237 46.3165 30.105 45.5865C30.2294 44.4695 29.9129 43.3731 29.2139 42.499C28.0111 40.9952 25.9771 40.5381 24.2842 41.2566C24.1487 40.6344 23.8719 40.0474 23.4631 39.5362C22.0159 37.7277 19.3656 37.4319 17.5542 38.8771L14.2072 41.5525C13.4504 40.5866 12.4215 39.7856 11.205 39.2144L18.0899 27.0367L21.7556 28.0989C21.7724 28.295 21.8041 28.5012 21.8572 28.7197C22.7446 32.3682 26.1039 34.0682 30.6242 33.1574C34.433 32.391 36.001 33.5326 39.1239 35.8067C39.4479 36.0426 39.7845 36.2877 40.1369 36.5401C42.3828 38.1514 44.7827 40.0452 46.3919 41.3289L50.4494 44.5716C50.8019 44.8529 51.0238 45.2579 51.0741 45.7121C51.1245 46.166 50.997 46.6095 50.7136 46.9625ZM50.6748 41.5517L47.9519 39.3756C46.3205 38.0742 43.8866 36.1539 41.5935 34.5086C41.246 34.2597 40.9146 34.0184 40.5956 33.7861C37.3574 31.428 35.017 29.7242 30.131 30.7069C28.6355 31.0082 25.0725 31.3606 24.2866 28.1296C24.1759 27.6735 24.2884 27.5167 24.3362 27.4499C24.5034 27.2169 25.1759 26.6497 27.807 26.4167L33.3899 25.9171C34.2996 25.8341 34.756 25.7924 36.1445 26.2774L39.4155 27.4209C39.7791 27.5479 40.0699 27.6579 40.3265 27.7551C41.9015 28.3517 42.3189 28.3516 44.388 27.7527L46.7995 27.054L53.6751 39.2151C52.4583 39.786 51.4304 40.5864 50.6748 41.5517Z" fill="black" stroke="white" stroke-width="0.7"/>
<path d="M58.0117 30.2529C58.702 30.2529 59.2617 29.6914 59.2617 29.001C59.2617 28.3106 58.702 27.751 58.0117 27.751C57.3215 27.751 56.7617 28.3107 56.7617 29.001V29.0045C56.7617 29.6949 57.3215 30.2529 58.0117 30.2529Z" fill="black" stroke="white" stroke-width="0.7"/>
</svg>
