<svg width="68" height="66" viewBox="0 0 68 66" fill="none" xmlns="http://www.w3.org/2000/svg">
<circle cx="40.2498" cy="27.6629" r="27.5936" fill="#F3F5F5"/>
<path d="M1.68362 37.021H1.71617C2.21766 37.0214 2.62907 36.6176 2.64615 36.1084C3.14928 21.5077 15.2083 10.0859 29.5808 10.5969C35.1091 10.7936 40.4322 12.7734 44.7783 16.2497H39.8289C39.3154 16.2497 38.899 16.6727 38.899 17.1945C38.899 17.7162 39.3154 18.1392 39.8289 18.1392H47.2689H47.2819C47.3546 18.1332 47.4264 18.1187 47.4958 18.0958C47.5433 18.0888 47.5902 18.0784 47.6362 18.0646C47.6622 18.0533 47.6818 18.0296 47.7069 18.0155C47.7903 17.974 47.867 17.9195 47.9338 17.8539L47.9431 17.8473C47.9667 17.8145 47.9882 17.7801 48.0073 17.7443C48.056 17.6841 48.097 17.6177 48.1291 17.5469C48.1547 17.4715 48.1704 17.3931 48.1756 17.3135C48.1863 17.2745 48.1941 17.2348 48.1988 17.1945V9.63648C48.1988 9.11474 47.7824 8.69173 47.2689 8.69173C46.7553 8.69173 46.3389 9.11474 46.3389 9.63648V15.1085C34.4233 5.19073 16.8493 6.96355 7.0865 19.0684C3.21159 23.8729 0.997982 29.8377 0.786177 36.0451C0.768972 36.5662 1.17061 37.003 1.68362 37.021Z" fill="black"/>
<path d="M9.21289 54.6148C8.87158 54.2234 8.28267 54.1873 7.89742 54.534C7.51217 54.8808 7.4766 55.479 7.8179 55.8704C8.45808 56.6002 9.13442 57.2965 9.84435 57.9564C10.2304 58.3006 10.8179 58.2617 11.1568 57.8696C11.486 57.4885 11.4604 56.9115 11.0989 56.5619C10.4379 55.9461 9.80843 55.2962 9.21289 54.6148Z" fill="black"/>
<path d="M20.311 62.0956C19.4608 61.8032 18.6261 61.466 17.8103 61.0857C17.3501 60.8541 16.7921 61.0454 16.5641 61.5129C16.3361 61.9805 16.5245 62.5473 16.9847 62.7789C17.0005 62.7868 17.0165 62.7944 17.0328 62.8013C17.9075 63.2104 18.8028 63.5724 19.7149 63.8859C20.2015 64.0531 20.7295 63.7879 20.8941 63.2935C21.0588 62.7992 20.7978 62.2628 20.311 62.0956Z" fill="black"/>
<path d="M15.4259 59.8162V59.8153C14.6529 59.3501 13.9037 58.8456 13.1809 58.3037C12.7776 57.9805 12.1929 58.0506 11.8747 58.4603C11.5565 58.8699 11.6256 59.4639 12.0289 59.7872C12.044 59.7992 12.0593 59.8109 12.0751 59.822C12.8482 60.4034 13.6499 60.9441 14.4773 61.4422C14.9193 61.7083 15.4899 61.5601 15.7518 61.1111C16.0139 60.662 15.8678 60.0823 15.4259 59.8162Z" fill="black"/>
<path d="M7.52834 52.4832C7.00406 51.7428 6.51745 50.9755 6.07012 50.1847C5.81333 49.732 5.24395 49.5766 4.79837 49.8375C4.35279 50.0983 4.1998 50.6768 4.4566 51.1294C4.93577 51.9751 5.45726 52.7952 6.01897 53.5867C6.32738 54.0039 6.91037 54.0881 7.32107 53.7748C7.72004 53.4705 7.81153 52.9006 7.52834 52.4832Z" fill="black"/>
<path d="M4.93456 48.1356C4.93456 48.0039 4.90736 47.8737 4.85493 47.7533L4.85307 47.7467C4.4891 46.9139 4.16779 46.0625 3.89054 45.1959C3.75569 44.6925 3.24454 44.3953 2.74898 44.5324C2.25341 44.6694 1.96093 45.1887 2.09589 45.6921C2.1038 45.7214 2.11298 45.7503 2.12356 45.7788C2.42034 46.7095 2.76432 47.624 3.15399 48.5186C3.30313 48.8606 3.63677 49.0809 4.00493 49.0807C4.51851 49.0805 4.93468 48.6573 4.93456 48.1356Z" fill="black"/>
<path d="M2.47917 43.6722C2.47928 43.6722 2.47952 43.6721 2.47963 43.6721C2.98148 43.5635 3.30186 43.0625 3.19572 42.5526C3.01042 41.6602 2.87011 40.7586 2.77537 39.8516C2.7212 39.3324 2.26295 38.9562 1.75192 39.0112C1.24089 39.0662 0.870522 39.5318 0.924694 40.0509C1.02653 41.0225 1.1773 41.988 1.37667 42.9437C1.48315 43.4542 1.97674 43.7803 2.47917 43.6722Z" fill="black"/>
<path d="M55.082 42.7079C55.0817 42.7077 55.0813 42.7077 55.081 42.7076C54.5825 42.5822 54.0783 42.8909 53.9547 43.3973C53.7392 44.283 53.4788 45.1568 53.1745 46.0152C53.0003 46.5062 53.251 47.0476 53.7343 47.2245C54.2177 47.4014 54.7506 47.1468 54.9247 46.6557C55.251 45.7364 55.5304 44.8004 55.7617 43.8517C55.8849 43.3452 55.5806 42.8332 55.082 42.7079Z" fill="black"/>
<path d="M25.5547 63.2979C24.6634 63.1901 23.7781 63.0356 22.9024 62.835C22.4014 62.7199 21.9034 63.0393 21.7902 63.5483C21.6769 64.0572 21.9913 64.5632 22.4923 64.6782C23.4309 64.8931 24.3798 65.0587 25.3353 65.1742C25.3724 65.1788 25.4096 65.1809 25.4469 65.1808C25.9605 65.1797 26.3759 64.7558 26.3749 64.234C26.374 63.7562 26.022 63.3544 25.5547 63.2979Z" fill="black"/>
<path d="M53.367 48.0961C52.9047 47.8694 52.3491 48.066 52.1254 48.5355C51.7344 49.3567 51.3018 50.1568 50.829 50.9323C50.566 51.3806 50.7106 51.9604 51.1519 52.2274C51.5824 52.488 52.1389 52.3552 52.41 51.9271C52.9161 51.0958 53.3796 50.2384 53.7984 49.3583C54.0225 48.8888 53.8292 48.3237 53.367 48.0961Z" fill="black"/>
<path d="M50.6195 53.01C50.2175 52.6853 49.6324 52.7531 49.3127 53.1615C49.3071 53.1686 49.3017 53.1758 49.2963 53.183V53.1811C48.7476 53.9042 48.1626 54.5979 47.5433 55.2596C47.1892 55.6378 47.204 56.2362 47.5763 56.5959C47.9487 56.9556 48.5377 56.9406 48.8918 56.5624C49.5539 55.8535 50.1804 55.1109 50.7685 54.3375C51.0882 53.9291 51.0215 53.3348 50.6195 53.01Z" fill="black"/>
<path d="M55.6545 37.0784C55.1493 37.0522 54.7187 37.4471 54.693 37.9603C54.6926 37.9699 54.6922 37.9796 54.692 37.9891C54.6605 38.9008 54.5825 39.8103 54.4585 40.7138C54.3884 41.23 54.743 41.7063 55.2509 41.7785C55.294 41.7849 55.3375 41.7881 55.3811 41.788C55.8446 41.7873 56.2369 41.4399 56.3008 40.9736C56.4333 40.0058 56.5167 39.0318 56.551 38.0553C56.5688 37.5341 56.1676 37.0968 55.6545 37.0784Z" fill="black"/>
<path d="M45.5948 57.1389V57.1418C44.9104 57.7353 44.1965 58.2928 43.4559 58.8121C43.0324 59.1094 42.9265 59.6993 43.2192 60.1295C43.5119 60.5597 44.0926 60.6673 44.516 60.37C45.308 59.8113 46.0716 59.2122 46.8038 58.5749C47.1942 58.2358 47.24 57.6394 46.9061 57.2428C46.5724 56.8463 45.9852 56.7998 45.5948 57.1389Z" fill="black"/>
<path d="M36.212 62.3611C35.3526 62.6242 34.4804 62.8417 33.5988 63.013C33.0944 63.1116 32.7641 63.6067 32.8612 64.1191C32.9452 64.5633 33.3274 64.8846 33.7727 64.8854C33.8316 64.8857 33.8904 64.8802 33.9484 64.8694C34.8935 64.6859 35.8285 64.4523 36.7496 64.1693C37.2373 64.006 37.5025 63.4719 37.3417 62.9764C37.1867 62.4983 36.6898 62.2278 36.212 62.3611Z" fill="black"/>
<path d="M30.9801 63.3844C30.963 63.3854 30.9461 63.3869 30.9291 63.3888L30.9337 63.3926C30.1897 63.4568 29.4281 63.487 28.6692 63.487H28.2442C27.737 63.4944 27.3225 63.9001 27.2965 64.4148C27.2872 64.9365 27.696 65.3671 28.2094 65.3765C28.2096 65.3765 28.2097 65.3765 28.2098 65.3765H28.6692C29.482 65.3765 30.2967 65.3397 31.0872 65.2707C31.6 65.2407 31.9917 64.7941 31.9621 64.2732C31.9324 63.7523 31.4928 63.3543 30.9801 63.3844Z" fill="black"/>
<path d="M41.1674 60.2453H41.1683C40.381 60.6833 39.5721 61.08 38.7448 61.4338C38.2688 61.6299 38.0395 62.1809 38.2325 62.6643C38.4254 63.1478 38.9679 63.3808 39.4438 63.1848C39.4508 63.1819 39.4576 63.179 39.4645 63.1759C40.351 62.7969 41.2176 62.3719 42.061 61.9024C42.5115 61.6517 42.6766 61.0775 42.4298 60.6199C42.1832 60.1623 41.6179 59.9946 41.1674 60.2453Z" fill="black"/>
<path d="M28.6689 17.1943C17.8829 17.1943 9.13916 26.0769 9.13916 37.0341C9.13916 47.9913 17.8829 56.8738 28.6689 56.8738C39.4549 56.8738 48.1986 47.9913 48.1986 37.0341C48.1864 26.0821 39.4498 17.2069 28.6689 17.1943ZM43.5487 37.9788H46.2912C45.8081 47.1331 38.6101 54.4453 29.5989 54.9361V52.1501C29.5989 51.6283 29.1825 51.2053 28.6689 51.2053C28.1553 51.2053 27.7389 51.6283 27.7389 52.1501V54.9361C18.7277 54.4453 11.5297 47.1331 11.0466 37.9788H13.7891C14.3027 37.9788 14.7191 37.5558 14.7191 37.0341C14.7191 36.5123 14.3027 36.0893 13.7891 36.0893H11.0466C11.5297 26.9351 18.7277 19.6228 27.7389 19.132V21.9181C27.7389 22.4398 28.1553 22.8628 28.6689 22.8628C29.1825 22.8628 29.5989 22.4398 29.5989 21.9181V19.132C38.6101 19.6228 45.8081 26.9351 46.2912 36.0893H43.5487C43.0351 36.0893 42.6187 36.5123 42.6187 37.0341C42.6187 37.5558 43.0351 37.9788 43.5487 37.9788Z" fill="#CB950B"/>
<path d="M29.5992 34.3743V25.6977C29.5992 25.1759 29.1828 24.7529 28.6692 24.7529C28.1556 24.7529 27.7392 25.1759 27.7392 25.6977V34.3743C26.9516 34.66 26.3317 35.2898 26.0504 36.0899H21.2293C20.7157 36.0899 20.2993 36.5129 20.2993 37.0347C20.2993 37.5564 20.7157 37.9794 21.2293 37.9794H26.0504C26.56 39.4528 28.1489 40.2275 29.5992 39.7097C31.0495 39.192 31.8121 37.5779 31.3025 36.1046C31.0225 35.2952 30.396 34.6587 29.5992 34.3743ZM28.6692 37.9794C28.1556 37.9794 27.7392 37.5564 27.7392 37.0347C27.7392 36.5129 28.1556 36.0899 28.6692 36.0899C29.1828 36.0899 29.5992 36.5129 29.5992 37.0347C29.5992 37.5564 29.1829 37.9794 28.6692 37.9794Z" fill="#CB950B"/>
</svg>
