<svg width="73" height="73" viewBox="0 0 73 73" fill="none" xmlns="http://www.w3.org/2000/svg">
<path d="M65.2404 0.802734H7.64043C5.73146 0.80464 3.90122 1.56382 2.55137 2.91367C1.20152 4.26352 0.442336 6.09376 0.44043 8.00273L0.44043 53.6027C0.442336 55.5117 1.20152 57.342 2.55137 58.6918C3.90122 60.0416 5.73146 60.8008 7.64043 60.8027H11.2404V68.3027C11.2367 69.1528 11.4749 69.9864 11.9272 70.7062C12.3794 71.426 13.0271 72.0023 13.7946 72.3678C14.5621 72.7333 15.4177 72.8729 16.2616 72.7704C17.1055 72.6679 17.9028 72.3274 18.5604 71.7887L32.0664 60.8027H65.2404C67.1494 60.8008 68.9796 60.0416 70.3295 58.6918C71.6793 57.342 72.4385 55.5117 72.4404 53.6027V8.00273C72.4385 6.09376 71.6793 4.26352 70.3295 2.91367C68.9796 1.56382 67.1494 0.80464 65.2404 0.802734V0.802734ZM70.0404 53.6027C70.0404 54.8758 69.5347 56.0967 68.6345 56.9968C67.7344 57.897 66.5135 58.4027 65.2404 58.4027H31.6404C31.3645 58.403 31.0971 58.4984 30.8832 58.6727L17.046 69.9227C16.7396 70.1714 16.3689 70.3282 15.977 70.3749C15.5851 70.4217 15.188 70.3564 14.8316 70.1868C14.4753 70.0172 14.1743 69.7501 13.9635 69.4164C13.7526 69.0828 13.6406 68.6962 13.6404 68.3015V59.6027C13.6404 59.2845 13.514 58.9793 13.289 58.7542C13.0639 58.5292 12.7587 58.4027 12.4404 58.4027H7.64043C6.36739 58.4027 5.14649 57.897 4.24632 56.9968C3.34614 56.0967 2.84043 54.8758 2.84043 53.6027V8.00273C2.84043 6.7297 3.34614 5.5088 4.24632 4.60862C5.14649 3.70845 6.36739 3.20273 7.64043 3.20273H65.2404C66.5135 3.20273 67.7344 3.70845 68.6345 4.60862C69.5347 5.5088 70.0404 6.7297 70.0404 8.00273V53.6027Z" fill="black"/>
<path d="M58.0403 40.7381V20.8685C58.0426 20.243 57.8642 19.6301 57.5266 19.1035C57.189 18.5769 56.7065 18.159 56.1371 17.9C55.5677 17.6409 54.9356 17.5518 54.3168 17.6433C53.698 17.7348 53.1188 18.003 52.6487 18.4157L48.4403 22.1177V21.2033C48.4403 19.9303 47.9346 18.7094 47.0344 17.8092C46.1343 16.909 44.9134 16.4033 43.6403 16.4033H19.6403C18.3673 16.4033 17.1464 16.909 16.2462 17.8092C15.346 18.7094 14.8403 19.9303 14.8403 21.2033V40.4033C14.8403 41.6764 15.346 42.8973 16.2462 43.7974C17.1464 44.6976 18.3673 45.2033 19.6403 45.2033H43.6403C44.9134 45.2033 46.1343 44.6976 47.0344 43.7974C47.9346 42.8973 48.4403 41.6764 48.4403 40.4033V39.4889L52.6487 43.1909C53.2355 43.7131 53.9933 44.0021 54.7787 44.0033C55.2437 44.0023 55.7031 43.902 56.1263 43.7093C56.6999 43.4541 57.1865 43.037 57.5265 42.5092C57.8665 41.9814 58.0451 41.3659 58.0403 40.7381ZM46.0403 40.4033C46.0403 41.0398 45.7875 41.6503 45.3374 42.1004C44.8873 42.5505 44.2768 42.8033 43.6403 42.8033H19.6403C19.0038 42.8033 18.3934 42.5505 17.9433 42.1004C17.4932 41.6503 17.2403 41.0398 17.2403 40.4033V21.2033C17.2403 20.5668 17.4932 19.9564 17.9433 19.5063C18.3934 19.0562 19.0038 18.8033 19.6403 18.8033H43.6403C44.2768 18.8033 44.8873 19.0562 45.3374 19.5063C45.7875 19.9564 46.0403 20.5668 46.0403 21.2033V40.4033ZM55.6403 40.7381C55.6437 40.9045 55.5977 41.0682 55.5079 41.2083C55.4182 41.3485 55.2889 41.4588 55.1363 41.5253C54.989 41.5942 54.8246 41.6179 54.6638 41.5936C54.5031 41.5693 54.3531 41.4979 54.2327 41.3885L48.4403 36.2921V25.3145L54.2327 20.2181C54.3527 20.1082 54.5028 20.0365 54.6637 20.0121C54.8246 19.9877 54.9892 20.0118 55.1363 20.0813C55.2889 20.1479 55.4182 20.2582 55.5079 20.3983C55.5977 20.5385 55.6437 20.7021 55.6403 20.8685V40.7381Z" fill="#CB950B"/>
<path d="M36.24 28.283L31.4004 25.259C30.9494 24.977 30.4311 24.8209 29.8994 24.8067C29.3676 24.7926 28.8418 24.921 28.3764 25.1786C27.9089 25.4327 27.5192 25.8089 27.2487 26.267C26.9782 26.7252 26.8371 27.2482 26.8404 27.7802V33.8258C26.8367 34.3575 26.9773 34.8802 27.2471 35.3384C27.517 35.7965 27.906 36.1729 28.3728 36.4274C28.8382 36.6843 29.3636 36.8124 29.895 36.7984C30.4263 36.7845 30.9443 36.6291 31.3956 36.3482L36.24 33.323C36.6686 33.0559 37.022 32.6841 37.2671 32.2426C37.5122 31.8011 37.6408 31.3044 37.6408 30.7994C37.6408 30.2945 37.5122 29.7978 37.2671 29.3563C37.022 28.9148 36.6686 28.5429 36.24 28.2758V28.283ZM34.9692 31.2926L30.1236 34.3166C30.0358 34.3693 29.9356 34.398 29.8332 34.3997C29.7308 34.4014 29.6298 34.3761 29.5402 34.3263C29.4507 34.2766 29.3759 34.2041 29.3232 34.1163C29.2706 34.0284 29.242 33.9282 29.2404 33.8258V27.7802C29.242 27.6778 29.2707 27.5775 29.3236 27.4897C29.3764 27.4019 29.4516 27.3297 29.5414 27.2803C29.6312 27.231 29.7325 27.2062 29.835 27.2087C29.9374 27.2111 30.0374 27.2406 30.1248 27.2942L34.9692 30.323C35.0489 30.3759 35.1143 30.4477 35.1595 30.5319C35.2048 30.6162 35.2284 30.7104 35.2284 30.806C35.2284 30.9017 35.2048 30.9958 35.1595 31.0801C35.1143 31.1644 35.0489 31.2362 34.9692 31.289V31.2926Z" fill="#CB950B"/>
<path d="M8.84063 16.4029C9.15889 16.4029 9.46411 16.2765 9.68915 16.0515C9.9142 15.8264 10.0406 15.5212 10.0406 15.2029V12.8029C10.0406 12.1664 10.2935 11.556 10.7436 11.1059C11.1937 10.6558 11.8041 10.4029 12.4406 10.4029H14.8406C15.1589 10.4029 15.4641 10.2765 15.6892 10.0515C15.9142 9.82641 16.0406 9.52119 16.0406 9.20293C16.0406 8.88467 15.9142 8.57945 15.6892 8.3544C15.4641 8.12936 15.1589 8.00293 14.8406 8.00293H12.4406C11.1676 8.00293 9.94669 8.50864 9.04651 9.40882C8.14634 10.309 7.64063 11.5299 7.64062 12.8029V15.2029C7.64062 15.5212 7.76705 15.8264 7.9921 16.0515C8.21714 16.2765 8.52237 16.4029 8.84063 16.4029Z" fill="black"/>
<path d="M14.8406 51.2021H12.4406C11.8041 51.2021 11.1937 50.9493 10.7436 50.4992C10.2935 50.0491 10.0406 49.4387 10.0406 48.8021V46.4021C10.0406 46.0839 9.9142 45.7787 9.68915 45.5536C9.46411 45.3286 9.15889 45.2021 8.84063 45.2021C8.52237 45.2021 8.21714 45.3286 7.9921 45.5536C7.76705 45.7787 7.64062 46.0839 7.64062 46.4021V48.8021C7.64063 50.0752 8.14634 51.2961 9.04651 52.1963C9.94669 53.0964 11.1676 53.6021 12.4406 53.6021H14.8406C15.1589 53.6021 15.4641 53.4757 15.6892 53.2507C15.9142 53.0256 16.0406 52.7204 16.0406 52.4021C16.0406 52.0839 15.9142 51.7787 15.6892 51.5536C15.4641 51.3286 15.1589 51.2021 14.8406 51.2021Z" fill="black"/>
<path d="M60.4403 8.00293H58.0403C57.7221 8.00293 57.4168 8.12936 57.1918 8.3544C56.9668 8.57945 56.8403 8.88467 56.8403 9.20293C56.8403 9.52119 56.9668 9.82641 57.1918 10.0515C57.4168 10.2765 57.7221 10.4029 58.0403 10.4029H60.4403C61.0769 10.4029 61.6873 10.6558 62.1374 11.1059C62.5875 11.556 62.8403 12.1664 62.8403 12.8029V15.2029C62.8403 15.5212 62.9668 15.8264 63.1918 16.0515C63.4168 16.2765 63.7221 16.4029 64.0403 16.4029C64.3586 16.4029 64.6638 16.2765 64.8889 16.0515C65.1139 15.8264 65.2403 15.5212 65.2403 15.2029V12.8029C65.2403 11.5299 64.7346 10.309 63.8344 9.40882C62.9343 8.50864 61.7134 8.00293 60.4403 8.00293Z" fill="black"/>
<path d="M64.0403 45.2021C63.7221 45.2021 63.4168 45.3286 63.1918 45.5536C62.9668 45.7787 62.8403 46.0839 62.8403 46.4021V48.8021C62.8403 49.4387 62.5875 50.0491 62.1374 50.4992C61.6873 50.9493 61.0769 51.2021 60.4403 51.2021H58.0403C57.7221 51.2021 57.4168 51.3286 57.1918 51.5536C56.9668 51.7787 56.8403 52.0839 56.8403 52.4021C56.8403 52.7204 56.9668 53.0256 57.1918 53.2507C57.4168 53.4757 57.7221 53.6021 58.0403 53.6021H60.4403C61.7134 53.6021 62.9343 53.0964 63.8344 52.1963C64.7346 51.2961 65.2403 50.0752 65.2403 48.8021V46.4021C65.2403 46.0839 65.1139 45.7787 64.8889 45.5536C64.6638 45.3286 64.3586 45.2021 64.0403 45.2021Z" fill="black"/>
</svg>
