<svg width="73" height="73" viewBox="0 0 73 73" fill="none" xmlns="http://www.w3.org/2000/svg">
<path d="M7.64043 60.8027H11.2404V68.3027C11.2367 69.1528 11.4749 69.9864 11.9272 70.7062C12.3794 71.426 13.0271 72.0023 13.7946 72.3678C14.5621 72.7333 15.4177 72.8729 16.2616 72.7704C17.1055 72.6679 17.9028 72.3274 18.5604 71.7887L32.0664 60.8027H65.2404C67.1494 60.8008 68.9796 60.0416 70.3295 58.6918C71.6793 57.342 72.4385 55.5117 72.4404 53.6027V8.00273C72.4385 6.09376 71.6793 4.26352 70.3295 2.91367C68.9796 1.56382 67.1494 0.80464 65.2404 0.802734L7.64043 0.802734C5.73146 0.80464 3.90122 1.56382 2.55137 2.91367C1.20152 4.26352 0.442336 6.09376 0.44043 8.00273L0.44043 53.6027C0.442336 55.5117 1.20152 57.342 2.55137 58.6918C3.90122 60.0416 5.73146 60.8008 7.64043 60.8027ZM2.84043 8.00273C2.84043 6.7297 3.34614 5.5088 4.24632 4.60862C5.14649 3.70845 6.36739 3.20273 7.64043 3.20273H65.2404C66.5135 3.20273 67.7344 3.70845 68.6345 4.60862C69.5347 5.5088 70.0404 6.7297 70.0404 8.00273V53.6027C70.0404 54.8758 69.5347 56.0967 68.6345 56.9968C67.7344 57.897 66.5135 58.4027 65.2404 58.4027H31.6404C31.3645 58.403 31.0971 58.4984 30.8832 58.6727L17.046 69.9227C16.7396 70.1714 16.3689 70.3282 15.977 70.3749C15.5851 70.4217 15.188 70.3564 14.8316 70.1868C14.4753 70.0172 14.1743 69.7501 13.9635 69.4164C13.7526 69.0828 13.6406 68.6962 13.6404 68.3015V59.6027C13.6404 59.2845 13.514 58.9793 13.289 58.7542C13.0639 58.5292 12.7587 58.4027 12.4404 58.4027H7.64043C6.36739 58.4027 5.14649 57.897 4.24632 56.9968C3.34614 56.0967 2.84043 54.8758 2.84043 53.6027V8.00273Z" fill="black"/>
<path d="M25.8444 49.7956C26.7467 50.694 27.9672 51.1998 29.2404 51.2032C29.3832 51.2032 29.5248 51.1972 29.6712 51.184C30.3717 51.1216 31.0499 50.9057 31.6575 50.5517C32.2652 50.1977 32.7874 49.7142 33.1872 49.1356L54.7872 17.9356C55.5119 16.8887 55.791 15.5968 55.5631 14.3441C55.3353 13.0914 54.6191 11.9805 53.5722 11.2558C52.5253 10.5311 51.2334 10.252 49.9807 10.4799C48.728 10.7077 47.6171 11.4239 46.8924 12.4708L28.566 38.9416L25.4328 35.8096C24.5189 34.9361 23.3034 34.4487 22.0392 34.4487C20.775 34.4487 19.5595 34.9361 18.6456 35.8096C17.7457 36.7097 17.2402 37.9304 17.2402 39.2032C17.2402 40.476 17.7457 41.6967 18.6456 42.5968L25.8444 49.7956ZM20.3424 37.5064C20.7976 37.0662 21.406 36.8201 22.0392 36.8201C22.6724 36.8201 23.2808 37.0662 23.736 37.5064L27.8856 41.656C28.0097 41.7816 28.1603 41.878 28.3264 41.938C28.4925 41.998 28.6699 42.0201 28.8456 42.0028C29.0206 41.9869 29.19 41.9328 29.3418 41.8442C29.4936 41.7557 29.624 41.6349 29.724 41.4904L48.8652 13.8364C49.0447 13.5772 49.2735 13.3558 49.5385 13.185C49.8036 13.0142 50.0996 12.8973 50.4099 12.8409C50.7201 12.7845 51.0384 12.7898 51.3465 12.8564C51.6547 12.923 51.9468 13.0497 52.206 13.2292C52.4652 13.4087 52.6866 13.6375 52.8574 13.9025C53.0282 14.1675 53.1451 14.4636 53.2015 14.7738C53.2579 15.0841 53.2526 15.4024 53.186 15.7105C53.1194 16.0187 52.9927 16.3108 52.8132 16.57L31.2132 47.77C31.0134 48.0585 30.7528 48.2997 30.4496 48.4765C30.1465 48.6534 29.8083 48.7616 29.4588 48.7936C29.1077 48.8228 28.7545 48.776 28.4231 48.6563C28.0918 48.5366 27.7902 48.3468 27.5388 48.1L20.3388 40.9C19.8966 40.4457 19.6494 39.8365 19.6501 39.2025C19.6508 38.5684 19.8992 37.9598 20.3424 37.5064Z" fill="#CB950B"/>
</svg>
