<svg width="73" height="73" viewBox="0 0 73 73" fill="none" xmlns="http://www.w3.org/2000/svg">
<path d="M11.2404 53.6028H12.4405V59.5668C12.4328 60.2445 12.6166 60.9105 12.9707 61.4883C13.3248 62.0662 13.8348 62.5323 14.442 62.8332C15.0492 63.134 15.729 63.2574 16.4033 63.189C17.0775 63.1207 17.7187 62.8634 18.2533 62.4468L29.6533 53.6028H38.5609L28.7605 63.4008C28.3089 63.8615 28.0512 64.4778 28.0405 65.1228V70.3549C28.0411 71.0039 28.2992 71.6262 28.7582 72.0852C29.2171 72.5441 29.8394 72.8022 30.4885 72.8029H35.7685C36.3995 72.7844 36.9999 72.527 37.4485 72.0829L38.7805 70.7509C39.0352 70.5016 39.2301 70.1978 39.3504 69.8623C39.4708 69.5268 39.5135 69.1684 39.4753 68.814L39.2641 66.0216L42.0409 66.276C42.3917 66.3017 42.744 66.2516 43.0738 66.1293C43.4036 66.0069 43.7033 65.8151 43.9525 65.5668L45.7321 63.7848C45.9904 63.5324 46.1896 63.2258 46.3153 62.8872C46.4411 62.5486 46.4902 62.1863 46.4593 61.8264L46.2517 59.0496L48.9445 59.2896C49.3071 59.334 49.675 59.295 50.0202 59.1756C50.3654 59.0562 50.6788 58.8597 50.9365 58.6008L52.5841 56.9532C52.9248 57.1219 53.2996 57.2105 53.6797 57.2124H53.6965C54.0247 57.2121 54.3495 57.1466 54.6521 57.0197C54.9547 56.8928 55.2291 56.7071 55.4593 56.4732L57.3925 54.5388C60.7214 55.0313 64.1123 54.2265 66.8648 52.2907C69.6174 50.355 71.5214 47.436 72.1837 44.1367C72.8459 40.8374 72.2158 37.4098 70.4235 34.5618C68.6312 31.7137 65.8136 29.6627 62.5525 28.8324H62.8405V11.6028C62.8374 8.73938 61.6985 5.9942 59.6738 3.96949C57.6491 1.94479 54.9039 0.805911 52.0405 0.802734L11.2404 0.802734C8.37708 0.805911 5.6319 1.94479 3.60719 3.96949C1.58248 5.9942 0.443606 8.73938 0.44043 11.6028L0.44043 42.8028C0.443606 45.6662 1.58248 48.4114 3.60719 50.4361C5.6319 52.4608 8.37708 53.5996 11.2404 53.6028ZM49.2049 56.8956L46.4641 56.6556C46.1087 56.6226 45.7503 56.668 45.4144 56.7889C45.0785 56.9097 44.7733 57.1029 44.5204 57.3548C44.2675 57.6067 44.073 57.9111 43.9508 58.2465C43.8286 58.5819 43.7817 58.9401 43.8133 59.2956L44.0533 62.07L42.2269 63.882L39.4669 63.63C39.1113 63.6023 38.754 63.6523 38.4197 63.7766C38.0854 63.901 37.7823 64.0966 37.5313 64.35C37.2842 64.6009 37.0948 64.9027 36.9765 65.2343C36.8581 65.5659 36.8136 65.9194 36.8461 66.2701L37.0861 69.0493L35.7205 70.4029L30.4405 70.3549L30.4609 65.0952L45.4909 50.0652L50.7709 55.3452L49.2049 56.8956ZM70.0406 41.5404C70.0445 42.9507 69.7681 44.3476 69.2276 45.6502C68.687 46.9527 67.893 48.1349 66.8917 49.128C65.6493 50.3808 64.1148 51.3049 62.4264 51.8171C60.738 52.3292 58.9488 52.4134 57.2197 52.062C57.0266 52.0239 56.8271 52.0338 56.6388 52.0909C56.4505 52.1481 56.2791 52.2506 56.1397 52.3896L53.7589 54.7668C53.7589 54.7668 53.6533 54.7668 53.6065 54.7668H53.5849L46.0765 47.2584V47.0844L48.4513 44.7108C48.5903 44.5715 48.6929 44.4001 48.75 44.2117C48.8071 44.0234 48.8171 43.8239 48.7789 43.6308C48.4884 42.1619 48.5084 40.6485 48.8377 39.1878C49.167 37.7271 49.7983 36.3514 50.691 35.1493C51.5837 33.9472 52.7181 32.9451 54.0212 32.2076C55.3244 31.4701 56.7674 31.0134 58.2576 30.8669C59.7477 30.7204 61.2521 30.8873 62.6739 31.3569C64.0957 31.8265 65.4035 32.5884 66.5133 33.5937C67.623 34.599 68.5101 35.8253 69.1176 37.1939C69.7251 38.5625 70.0395 40.043 70.0406 41.5404ZM2.84043 11.6028C2.84329 9.37581 3.72921 7.24089 5.3039 5.6662C6.87859 4.09151 9.0135 3.2056 11.2404 3.20274H52.0405C54.2675 3.2056 56.4024 4.09151 57.9771 5.6662C59.5518 7.24089 60.4377 9.37581 60.4405 11.6028V28.458C60.0637 28.4256 59.6857 28.4028 59.3029 28.4028C57.4167 28.4042 55.5529 28.8118 53.8382 29.5977C52.1235 30.3837 50.5981 31.5297 49.3658 32.9577C48.1335 34.3857 47.2231 36.0624 46.6965 37.8736C46.1699 39.6849 46.0395 41.5883 46.3141 43.4544L44.3941 45.3744C44.1563 45.6051 43.9671 45.8812 43.8377 46.1862C43.7082 46.4912 43.6412 46.8191 43.6405 47.1504C43.6406 47.5362 43.7293 47.9167 43.8997 48.2628L40.9597 51.2028H29.2405C28.9741 51.2029 28.7153 51.2915 28.5049 51.4548L16.7833 60.5496C16.6082 60.6897 16.3963 60.7762 16.1732 60.7988C15.9501 60.8214 15.7253 60.779 15.5257 60.6768C15.3175 60.5764 15.1424 60.4185 15.021 60.2219C14.8996 60.0252 14.8369 59.7979 14.8405 59.5668V52.4028C14.8405 52.0846 14.714 51.7793 14.489 51.5543C14.2639 51.3293 13.9587 51.2028 13.6405 51.2028H11.2404C9.0135 51.2 6.87859 50.314 5.3039 48.7394C3.72921 47.1647 2.84329 45.0298 2.84043 42.8028V11.6028Z" fill="black"/>
<path d="M10.0403 15.2027H53.2404C53.5587 15.2027 53.8639 15.0763 54.089 14.8513C54.314 14.6262 54.4404 14.321 54.4404 14.0027C54.4404 13.6845 54.314 13.3793 54.089 13.1542C53.8639 12.9292 53.5587 12.8027 53.2404 12.8027H10.0403C9.72207 12.8027 9.41685 12.9292 9.1918 13.1542C8.96676 13.3793 8.84033 13.6845 8.84033 14.0027C8.84033 14.321 8.96676 14.6262 9.1918 14.8513C9.41685 15.0763 9.72207 15.2027 10.0403 15.2027Z" fill="#CB950B"/>
<path d="M10.0403 23.6031H46.0404C46.3587 23.6031 46.6639 23.4767 46.889 23.2517C47.114 23.0266 47.2404 22.7214 47.2404 22.4031C47.2404 22.0849 47.114 21.7796 46.889 21.5546C46.6639 21.3296 46.3587 21.2031 46.0404 21.2031H10.0403C9.72207 21.2031 9.41685 21.3296 9.1918 21.5546C8.96676 21.7796 8.84033 22.0849 8.84033 22.4031C8.84033 22.7214 8.96676 23.0266 9.1918 23.2517C9.41685 23.4767 9.72207 23.6031 10.0403 23.6031Z" fill="#CB950B"/>
<path d="M10.0403 32.0025H36.4404C36.7587 32.0025 37.0639 31.8761 37.2889 31.6511C37.514 31.426 37.6404 31.1208 37.6404 30.8025C37.6404 30.4843 37.514 30.1791 37.2889 29.954C37.0639 29.729 36.7587 29.6025 36.4404 29.6025H10.0403C9.72207 29.6025 9.41685 29.729 9.1918 29.954C8.96676 30.1791 8.84033 30.4843 8.84033 30.8025C8.84033 31.1208 8.96676 31.426 9.1918 31.6511C9.41685 31.8761 9.72207 32.0025 10.0403 32.0025Z" fill="#CB950B"/>
<path d="M10.0403 40.4029H24.4404C24.7586 40.4029 25.0638 40.2765 25.2889 40.0514C25.5139 39.8264 25.6404 39.5212 25.6404 39.2029C25.6404 38.8847 25.5139 38.5794 25.2889 38.3544C25.0638 38.1294 24.7586 38.0029 24.4404 38.0029H10.0403C9.72207 38.0029 9.41685 38.1294 9.1918 38.3544C8.96676 38.5794 8.84033 38.8847 8.84033 39.2029C8.84033 39.5212 8.96676 39.8264 9.1918 40.0514C9.41685 40.2765 9.72207 40.4029 10.0403 40.4029Z" fill="#CB950B"/>
</svg>
